<svg
  xmlns="http://www.w3.org/2000/svg"
  version="1.1"
  width="24"
  height="24"
  viewBox="0 0 24 24"
  fill="none"
  role="img"
>
  <metadata>
    <rdf:RDF
      xmlns:rdf="http://www.w3.org/1999/02/22-rdf-syntax-ns#"
      xmlns:dc="http://purl.org/dc/elements/1.1/"
    >
      <rdf:Description>
        <dc:creator>RealFaviconGenerator</dc:creator>
        <dc:source>https://realfavicongenerator.net</dc:source>
      </rdf:Description>
    </rdf:RDF>
  </metadata>
  <defs></defs>
  <style>
    #light-icon {
      display: inline;
    }
    #dark-icon {
      display: none;
    }

    @media (prefers-color-scheme: dark) {
      #light-icon {
        display: none;
      }
      #dark-icon {
        display: inline;
      }
    }
  </style>
  <g id="light-icon">
    <path
      d="m 9.99128,15 c 0,-0.9985 -0.08309,-3.3652 -1.83332,-6.73049 C 7.38157,6.77671 7.39203,5.2142 7.6806,3.98372 7.77486,3.58177 8.01266,3.37651 8.33553,3.15508 8.70845,2.89932 8.89491,2.77143 9.08803,2.66275 9.70688,2.31447 10.393,2.10186 11.1006,2.03909 c 0.5875,-0.05212 1.2113,-0.05212 1.7988,0 0.7076,0.06277 1.3937,0.27538 2.0126,0.62366 0.1931,0.10868 0.3796,0.23657 0.7525,0.49233 0.3228,0.22143 0.5606,0.42669 0.6549,0.82864 C 16.608,5.2142 16.6184,6.77671 15.842,8.26951 14.0918,11.6348 14.0087,14.0015 14.0087,15"
      stroke="#000000"
      stroke-width="1"
      stroke-linecap="round"
      stroke-linejoin="round"
    />
    <path
      d="M 7.0883,17.7351 C 7.52832,16.4151 7.74832,15.755 8.2721,15.3775 8.79587,15 9.49159,15 10.883,15 h 2.234 c 1.3914,0 2.0871,0 2.6109,0.3775 0.5238,0.3775 0.7438,1.0376 1.1838,2.3576 L 17,18 H 7 Z"
      stroke="#000000"
      stroke-width="1"
    />
    <path
      d="M 4.25262,20.1823 C 4.46592,19.645 4.57257,19.3764 4.72208,19.1551 5.10369,18.5902 5.70937,18.1937 6.40325,18.0545 6.67511,18 6.97885,18 7.58633,18 h 8.82737 c 0.6075,0 0.9112,0 1.183,0.0545 0.6939,0.1392 1.2996,0.5357 1.6812,1.1006 0.1495,0.2213 0.2562,0.4899 0.4695,1.0272 0.1651,0.416 0.2477,0.624 0.2522,0.7921 0.0119,0.4355 -0.2762,0.8281 -0.712,0.9706 C 19.1194,22 18.8842,22 18.4139,22 H 5.5861 C 5.11579,22 4.88064,22 4.71244,21.945 4.27658,21.8025 3.98853,21.4099 4.00035,20.9744 4.00491,20.8063 4.08748,20.5983 4.25262,20.1823 Z"
      stroke="#000000"
      stroke-width="1"
    />
    <path
      d="m 10.687665,6.7248612 h 1.837426 m -1.837426,0 V 5.54204 c 0,-0.2062336 0,-0.3093483 0.06406,-0.3734172 0.06406,-0.064065 0.167185,-0.064065 0.373413,-0.064065 h 1.399943 c 0.434902,0 0.78747,0.3627168 0.78747,0.8101302 0,0.4474567 -0.352568,0.810173 -0.78747,0.810173 m -1.837425,0 v 1.1828218 c 0,0.206229 0,0.3093435 0.06406,0.3733915 0.06406,0.064092 0.167185,0.064092 0.373414,0.064092 h 1.399942 c 0.434902,0 0.787471,-0.3627167 0.787471,-0.8101737 0,-0.4474139 -0.352569,-0.8101303 -0.787471,-0.8101303 M 11.341177,5.1045575 V 4.5374494 m 0,4.3748238 V 8.3451648 M 12.39306,5.1045575 V 4.5374494 m 0,4.3748238 V 8.3451648"
      stroke="#000000"
      stroke-width="0.75"
      stroke-linecap="round"
    />
  </g>
  <g id="dark-icon">
    <path
      d="m 9.99128,15 c 0,-0.9985 -0.08309,-3.3652 -1.83332,-6.73049 C 7.38157,6.77671 7.39203,5.2142 7.6806,3.98372 7.77486,3.58177 8.01266,3.37651 8.33553,3.15508 8.70845,2.89932 8.89491,2.77143 9.08803,2.66275 9.70688,2.31447 10.393,2.10186 11.1006,2.03909 c 0.5875,-0.05212 1.2113,-0.05212 1.7988,0 0.7076,0.06277 1.3937,0.27538 2.0126,0.62366 0.1931,0.10868 0.3796,0.23657 0.7525,0.49233 0.3228,0.22143 0.5606,0.42669 0.6549,0.82864 C 16.608,5.2142 16.6184,6.77671 15.842,8.26951 14.0918,11.6348 14.0087,14.0015 14.0087,15"
      stroke="#ffffff"
      stroke-width="1"
      stroke-linecap="round"
      stroke-linejoin="round"
    />
    <path
      d="M 7.0883,17.7351 C 7.52832,16.4151 7.74832,15.755 8.2721,15.3775 8.79587,15 9.49159,15 10.883,15 h 2.234 c 1.3914,0 2.0871,0 2.6109,0.3775 0.5238,0.3775 0.7438,1.0376 1.1838,2.3576 L 17,18 H 7 Z"
      stroke="#ffffff"
      stroke-width="1"
    />
    <path
      d="M 4.25262,20.1823 C 4.46592,19.645 4.57257,19.3764 4.72208,19.1551 5.10369,18.5902 5.70937,18.1937 6.40325,18.0545 6.67511,18 6.97885,18 7.58633,18 h 8.82737 c 0.6075,0 0.9112,0 1.183,0.0545 0.6939,0.1392 1.2996,0.5357 1.6812,1.1006 0.1495,0.2213 0.2562,0.4899 0.4695,1.0272 0.1651,0.416 0.2477,0.624 0.2522,0.7921 0.0119,0.4355 -0.2762,0.8281 -0.712,0.9706 C 19.1194,22 18.8842,22 18.4139,22 H 5.5861 C 5.11579,22 4.88064,22 4.71244,21.945 4.27658,21.8025 3.98853,21.4099 4.00035,20.9744 4.00491,20.8063 4.08748,20.5983 4.25262,20.1823 Z"
      stroke="#ffffff"
      stroke-width="1"
    />
    <path
      d="m 10.687665,6.7248612 h 1.837426 m -1.837426,0 V 5.54204 c 0,-0.2062336 0,-0.3093483 0.06406,-0.3734172 0.06406,-0.064065 0.167185,-0.064065 0.373413,-0.064065 h 1.399943 c 0.434902,0 0.78747,0.3627168 0.78747,0.8101302 0,0.4474567 -0.352568,0.810173 -0.78747,0.810173 m -1.837425,0 v 1.1828218 c 0,0.206229 0,0.3093435 0.06406,0.3733915 0.06406,0.064092 0.167185,0.064092 0.373414,0.064092 h 1.399942 c 0.434902,0 0.787471,-0.3627167 0.787471,-0.8101737 0,-0.4474139 -0.352569,-0.8101303 -0.787471,-0.8101303 M 11.341177,5.1045575 V 4.5374494 m 0,4.3748238 V 8.3451648 M 12.39306,5.1045575 V 4.5374494 m 0,4.3748238 V 8.3451648"
      stroke="#ffffff"
      stroke-width="0.75"
      stroke-linecap="round"
    />
  </g>
</svg>
